<?xml version="1.0" encoding="utf-8"?>
<!-- Generator: Adobe Illustrator 21.0.0, SVG Export Plug-In . SVG Version: 6.00 Build 0)  -->
<svg version="1.1" id="Layer_1" xmlns="http://www.w3.org/2000/svg" xmlns:xlink="http://www.w3.org/1999/xlink" x="0px" y="0px"
	 width="200px" height="200px" viewBox="0 0 200 200" style="enable-background:new 0 0 200 200;" xml:space="preserve">
<style type="text/css">
	.st0{clip-path:url(#SVGID_2_);}
	.st1{fill:#C5E9FA;}
	.st2{fill:#B6E0F2;}
	.st3{opacity:0.5;fill:#FFDD99;enable-background:new    ;}
	.st4{fill:#FFC44D;}
	.st5{fill:#8BE3F7;}
	.st6{opacity:0.2;fill:#0BBBD8;enable-background:new    ;}
	.st7{fill:#FFFFFF;}
	.st8{opacity:0.2;fill:#0BBBD8;}
	.st9{opacity:0.3;}
	.st10{fill:#0BBBD8;}
</style>
<g>
	<g>
		<defs>
			<circle id="SVGID_1_" cx="100" cy="100" r="100"/>
		</defs>
		<clipPath id="SVGID_2_">
			<use xlink:href="#SVGID_1_"  style="overflow:visible;"/>
		</clipPath>
		<g class="st0">
			<circle class="st1" cx="100" cy="100" r="100"/>
			<path class="st2" d="M18.7,159.1c27.1,20.3,25.7-22.9,53.5-5.1c9.7,6.2,18,8.3,26.3-2c21.2-26,31.1,35.4,43.8,18
				c14.3-19.7,36-7.7,38.5,21.2c2.6,30.6-81.2,59.1-99.2,49.4S18.7,159.1,18.7,159.1z"/>
			<path class="st2" d="M20.6,191.9c3.4-28.5,31.2-6.3,39.1-39.5C67,122.2,47.1,78,58.3,68S106,23.9,83.9,22.3
				C54,20,104.2-13.1,78.4-7.3C-30.5,17-34.5,129.2-31,142.2S20.6,191.9,20.6,191.9z"/>
			<circle class="st3" cx="162.4" cy="74.1" r="27.1"/>
			<circle class="st4" cx="162.4" cy="74.1" r="17.6"/>
			<circle class="st5" cx="100" cy="100" r="71"/>
			<path class="st6" d="M100,170c15.6,0,30.8-5.1,43.1-14.6l0.5-3.8l-3.1,4.2l-7.4-5.4l-1.4,4l2.1,2.9l-9.5-5.4l-2.5,4.3l2,3.8
				l-7.2,4.4l5.1-5.2l-7.8-1.6l0.4-3.4l-10.2,3.7l-3-2.9l-4.5,7.1l3.2,4.4l-5-3.3l-1.3-7.7l-3.5,4.2l-5.8-2.8l2.2,5L77,155l-3.1,2.3
				l0.3,2.8l-3.1,1.8l-6.6-1.5C75.4,166.7,87.6,170,100,170z"/>
			<path class="st7" d="M100,172.4c15.6,0,30.8-5.1,43.1-14.6l0.5-3.8l-3.1,4.2l-7.4-5.4l-1.4,4l2.1,2.9l-9.5-5.4l-2.5,4.3l2,3.8
				l-7.2,4.4l5.1-5.2l-7.8-1.6l0.4-3.4l-10.2,3.7l-3-2.9l-4.5,7.1l3.2,4.4l-5-3.3l-1.3-7.7l-3.5,4.2l-5.8-2.8l2.2,5l-9.4-6.9
				l-3.1,2.3l0.3,2.8l-3.1,1.8l-6.6-1.5C75.4,169.1,87.6,172.4,100,172.4z"/>
			<path class="st8" d="M102.5,63.1l2.6-3.3c0.2-0.3,0.2-0.7-0.1-1l0,0l-3.6-2.5c-0.2-0.1-0.4-0.2-0.6-0.1l-4.1,1.3
				c-0.3,0.1-0.5,0.4-0.5,0.7v0.5c0,0.3-0.2,0.6-0.5,0.7L94,59.8c-0.3,0.1-0.7-0.1-0.8-0.3L93,59.1c-0.2-0.3-0.6-0.5-0.9-0.3
				c0,0,0,0-0.1,0l-1.7,1.1C90.2,60,90.1,60,89.9,60l-7.7,0.2c-0.1,0-0.1,0-0.2,0l-4.9-1.5h-0.2L63,58.4l-6.7-0.2
				c-0.2,0-0.3,0.1-0.5,0.2l-4.7,4.1c-0.1,0-0.1,0.1-0.2,0.1l-4,1.8c-0.4,0.2-0.5,0.6-0.4,0.9c0,0,0,0.1,0.1,0.1v0.1
				c0.2,0.3,0.2,0.8-0.2,1l0,0L44,68.1l4.6-0.6c0.1,0,0.1,0,0.2-0.1l6-2.8c0.2-0.1,0.4-0.1,0.5,0l4.4,1.5c0.3,0.1,0.5,0.4,0.5,0.7
				v5.8c0,0.1,0,0.2-0.1,0.3l-4.7,8.2c-0.1,0.2-0.1,0.4,0,0.7l4,8.4c0.2,0.4,0.6,0.5,0.9,0.4c0.3-0.1,0.4-0.4,0.4-0.7v-0.1
				c0-0.4,0.3-0.7,0.7-0.7c0.3,0,0.5,0.2,0.7,0.4l1.8,4c0,0.1,0,0.3,0,0.4l-0.3,1.4c-0.1,0.3,0.1,0.6,0.4,0.8l5.1,2.3
				c0.1,0,0.2,0.1,0.3,0.1h2c0.1,0,0.2,0,0.3,0l2.8,1.1c0.1,0,0.2,0.1,0.3,0.2l3.6,4c0.1,0.1,0.3,0.2,0.5,0.2h3.2
				c0.4,0,0.6,0.3,0.7,0.6l0.3,2.1c0,0.2,0,0.3-0.1,0.4l-2.6,4.4c-0.1,0.2-0.1,0.4,0,0.6l3.1,8c0.1,0.1,0.1,0.2,0.3,0.3l4.7,3.2
				c0.2,0.1,0.3,0.3,0.3,0.6l0.6,15c0,0.1,0.1,0.3,0.2,0.4l2.8,3.5c0.1,0.1,0.1,0.3,0.2,0.4l0.2,3.5c0,0.1,0.1,0.3,0.1,0.4l2.4,3.4
				c0.1,0.1,0.3,0.2,0.4,0.3l3.1,0.7c0.4,0.1,0.8-0.1,0.8-0.5c0.1-0.2,0-0.4-0.1-0.6l-1.4-1.8c-0.1-0.1-0.2-0.3-0.2-0.4v-2.7
				c0-0.1,0-0.3-0.1-0.4l-0.8-1.2c-0.1-0.2-0.1-0.5,0-0.8l2-3.5c0.2-0.3,0.5-0.4,0.8-0.3l0.2,0.1c0.4,0.1,0.8-0.1,0.8-0.5
				c0-0.1,0-0.1,0-0.2l-0.1-2c0-0.4,0.3-0.7,0.7-0.7h0.1l1.3,0.1c0.3,0,0.5-0.1,0.7-0.3l2.1-3.4c0.1-0.1,0.1-0.3,0.1-0.4l-0.2-2.5
				c0-0.3,0.1-0.5,0.3-0.6l5.6-3.7c0.2-0.1,0.3-0.3,0.3-0.5l0.4-5c0-0.1,0-0.2,0.1-0.3l1.5-2.7c0.1-0.1,0.1-0.2,0.1-0.3V114
				c0-0.3-0.2-0.6-0.5-0.7l-3.2-1.2c-0.1,0-0.1,0-0.2,0l-2.8-0.2c-0.1,0-0.3-0.1-0.4-0.1l-3.6-2.7c-0.1-0.1-0.2-0.2-0.3-0.3l-0.7-2
				c-0.1-0.2-0.2-0.4-0.4-0.4l-4.9-1.8c-0.1,0-0.2-0.1-0.3-0.2l-1.9-2.2c-0.1-0.2-0.3-0.2-0.5-0.2h-2.9l-3.5-0.7
				c-0.2,0-0.4,0-0.6,0.1l-2,1.4c-0.1,0.1-0.3,0.1-0.5,0.1l-4.2-0.3c-0.3,0-0.5-0.2-0.6-0.5l-1-3.6c-0.1-0.3-0.3-0.4-0.5-0.5
				l-1.6-0.3c-0.4-0.1-0.6-0.4-0.5-0.8v-0.1l0.4-1c0.1-0.4,0-0.8-0.4-0.9c-0.1-0.1-0.3-0.1-0.5,0l-3.1,0.9c-0.1,0-0.3,0-0.4,0
				l-2-0.8c-0.3-0.1-0.5-0.5-0.4-0.8l1.6-5.6c0.1-0.3,0.3-0.5,0.6-0.5l8.8-1c0.3,0,0.6,0.2,0.7,0.5l0.8,2.4l1-3.7
				c0-0.2,0.2-0.3,0.3-0.4l4.2-2.4c0.2-0.1,0.3-0.3,0.3-0.5l0.7-3.2c0.1-0.3,0.3-0.5,0.5-0.5l3.6-0.9c0.1,0,0.3-0.1,0.3-0.2l1.5-1.6
				c0.3-0.3,0.7-0.3,1,0c0.1,0.1,0.1,0.2,0.2,0.3l0,0c0.1,0.4,0.5,0.6,0.9,0.5c0,0,0.1,0,0.1-0.1l2.2-1.3c0.3-0.2,0.4-0.6,0.3-1
				l-0.1-0.1L98,73.5c-0.2-0.2-0.2-0.5-0.1-0.8l0.2-0.4c0.1-0.3,0.5-0.5,0.8-0.4l3.1,0.6c0.3,0.1,0.5,0.3,0.6,0.6l0.1,0.8
				c0,0.4,0.3,0.6,0.7,0.6h2.6c0.4,0,0.7-0.3,0.7-0.7c0-0.1,0-0.3-0.1-0.4l-0.9-1.3c-0.1-0.2-0.2-0.5-0.1-0.7l0.6-1.3
				c0.1-0.3,0.1-0.6-0.2-0.8l-2.5-2.4c-0.2-0.2-0.2-0.4-0.2-0.6l0.2-1.4l-2.6,1.3c-0.3,0.2-0.8,0-0.9-0.3c0-0.1-0.1-0.1-0.1-0.2
				l-0.2-1.1c0-0.3-0.3-0.5-0.6-0.6l-2.5-0.4c-0.3-0.1-0.6,0.1-0.8,0.4l-1.7,3.6c-0.1,0.2-0.2,0.3-0.4,0.3l-1,0.4
				c-0.1,0.1-0.2,0.1-0.3,0.3l-1,1.4c-0.2,0.3-0.6,0.4-1,0.2c-0.1-0.1-0.2-0.2-0.3-0.3l-0.4-1.2c-0.1-0.2-0.2-0.3-0.4-0.4l-3.5-1.5
				c-0.4-0.2-0.5-0.6-0.4-0.9v-0.1l0.7-1.2c0.1-0.2,0.2-0.3,0.4-0.3l5.5-1.8c0.3-0.1,0.6,0,0.7,0.2l0.4,0.4c0.2,0.3,0.7,0.3,1,0.1
				l0.1-0.1l0.4-0.5c0.1-0.2,0.2-0.4,0.1-0.6l-0.1-0.6c-0.1-0.3,0-0.6,0.3-0.7c1-0.7,3.6-2.4,3.9-2.3c0.7,0.3,1.4,0.7,2,1.1
				c0.3,0.2,0.4,0.6,0.2,1c-0.1,0.1-0.2,0.3-0.4,0.3l-2.8,0.9l2.6,0.5c0.2,0,0.4,0.2,0.5,0.4l0.3,0.5c0.2,0.3,0.6,0.4,1,0.2
				C102.4,63.2,102.5,63.2,102.5,63.1z"/>
			<path class="st8" d="M108.9,53.9l3.2-0.2c0.1,0,0.2,0,0.3-0.1l5.9-2.3c0.1-0.1,0.3-0.1,0.4-0.1l12.7,0.3h0.1h0.2
				c0.6,0.1,1,0.7,1,1.3c0,0.3-0.3,0.6-0.6,0.8l0,0c-0.2,0.1-0.3,0.2-0.4,0.4l-2.1,3.4c-0.1,0.3-0.4,0.5-0.6,0.6l-6.2,1.9
				c-0.2,0.1-0.5,0.2-0.6,0.4l-0.3,0.5c-0.2,0.3-0.6,0.5-1,0.5l-2.2-0.1c-0.3,0-0.7,0.1-0.9,0.4l-2,2.4c-0.3,0.4-0.8,0.5-1.3,0.3
				l-1.7-0.7c-0.5-0.2-0.8-0.8-0.6-1.4l0.7-1.9c0.1-0.2,0.2-0.4,0.4-0.5l0.5-0.4c0.4-0.3,0.5-0.8,0.4-1.2l-0.7-2.3
				c-0.1-0.4-0.4-0.6-0.8-0.7L108.9,53.9z"/>
			<polygon class="st8" points="79.4,56.2 82.3,55.3 84.2,56.5 87.8,56.3 89.7,56.8 92.6,56.3 87.8,57.7 88.5,58.8 81.6,59 
				80.8,57.5 77.5,57.4 			"/>
			<path class="st8" d="M92.8,53.5l5.9-0.7c0,0,1.1-0.8,1.5-0.8s3.1-0.2,3.4-0.2s2-0.9,2.3-0.8s6.2,0.2,5.8,0.3l-5.3,1.4
				c-0.9,0.6-1.8,1-2.8,1.5c-0.3,0-4.3-0.2-4.3-0.2l-4.7,1L92.8,53.5z"/>
			<path class="st6" d="M163.9,89.5l3.1,4.7l0.1,0.1l2.3,2.7c0.2,0.3,0.6,0.4,0.9,0.3l0.6-0.2c-0.3-6.5-1.4-12.7-3.2-18.6l-1.4,0.7
				c-0.2,0.1-0.4,0.1-0.6,0.1l-3-0.8c-0.2,0-0.3,0-0.5,0l-2,0.6c-0.4,0.1-0.9-0.1-1.1-0.5l-0.5-1.1c-0.2-0.3-0.1-0.7,0.1-1l0.4-0.5
				c0.3-0.3,0.6-0.4,1-0.2l1.2,0.5c0.3,0.1,0.7,0.1,1-0.2l0.7-0.7c0.2-0.2,0.4-0.3,0.6-0.3h1.9c0.4,0,0.7-0.2,0.8-0.5
				c-0.3-0.8-0.6-1.6-0.9-2.4l-8.7-14.4c-0.2-0.4-0.7-0.5-1.1-0.4l-3.6,1.5c0.3-0.5,0.2-0.4,0.1-0.4l-5.4,4.6h-0.1l-1.5,1.1
				c-0.4,0.3-0.5,0.7-0.3,1.1v0.1c0.2,0.3,0.5,0.5,0.9,0.5l1.7-0.1c0.4,0,0.8,0.2,0.9,0.6l0.1,0.2c0.2,0.5,0.7,0.7,1.1,0.5l0.9-0.3
				c0.4-0.1,0.6-0.5,0.6-0.8l0.1-2.4c0-0.3,0.1-0.5,0.4-0.7l0.5-0.4c0.4-0.3,1-0.2,1.3,0.2c0.1,0.1,0.2,0.3,0.2,0.5
				c0,0.6,0.1,1.2,0.3,1.2l1.6,0.3c0.5,0.1,0.8,0.6,0.7,1.1c0,0.2-0.2,0.4-0.4,0.6l-1.6,1l-0.1,0.1l-3.3,1.5
				c-0.1,0.1-0.3,0.1-0.4,0.1l-3.3-0.3c-0.2,0-0.4,0-0.6,0.2l-2.1,1.6l-0.2,0.1l-4.8,2.2c-0.5,0.2-0.7,0.7-0.4,1.2
				c0,0,0,0.1,0.1,0.1l0.4,0.6c0.2,0.3,0.2,0.7-0.1,1.1l-0.4,0.5c-0.1,0.2-0.3,0.3-0.5,0.3l-4.4,0.9c-0.4,0.1-0.7,0.4-0.7,0.8
				l-0.1,2.2c0,0.4,0.3,0.8,0.7,0.9l2.5,0.6c0.2,0.1,0.4,0.1,0.5,0l2.1-0.8c0.2-0.1,0.3-0.2,0.4-0.3l2.1-3.2
				c0.1-0.2,0.4-0.4,0.6-0.4l4.6-0.8c0.3,0,0.6,0,0.8,0.3l2.4,2.4c0.3,0.3,0.3,0.7,0.2,1l-0.7,1.5l2.5-2.2c0.4-0.3,0.4-0.9,0.1-1.3
				l-0.1-0.1c-1.2-0.8-2.3-1.8-3.4-2.8c2,0.7,3.9,1.6,5.7,2.6c0.1,0.3,0.2,0.7,0.3,1.1c0.1,0.5,0.6,0.8,1,0.7c0.2,0,0.5-0.2,0.6-0.4
				c0.2-0.3,0.5-0.4,0.8-0.4c0.6,0,1.3,0.1,1.3,0.4c0,0.3,0.1,0.9,0.1,1.4c0,0.4,0.3,0.7,0.7,0.8l5.1,1.1c0.5,0.1,0.8,0.6,0.7,1.1
				c0,0.1-0.1,0.2-0.1,0.3L163,86c-0.2,0.3-0.5,0.4-0.9,0.4l-7.2-1c-0.3,0-0.6,0.1-0.8,0.3l-0.9,0.9c-0.3,0.3-0.7,0.3-1,0.2
				l-5.2-2.3c-0.3-0.1-0.5-0.4-0.5-0.7l-0.2-1.2c-0.1-0.5-0.5-0.8-1-0.7h-0.1l-5.8,1.5h-0.1l-3.7,0.3c-0.2,0-0.4,0.1-0.6,0.3
				l-2.7,3.2l-0.1,0.1l-3.3,2.9c-0.1,0.1-0.2,0.3-0.3,0.4l-0.8,3c0,0.2,0,0.3,0,0.5l0.6,2.2c0.1,0.3,0,0.5-0.1,0.8l-0.7,1
				c-0.2,0.2-0.2,0.5-0.1,0.8l0.9,3c0,0.1,0.1,0.3,0.2,0.4l3.5,3.5c0.2,0.2,0.5,0.3,0.8,0.3l3.7-0.7h0.2h4.6c0.1,0,0.2,0,0.3,0
				l3.9,1.3c0.3,0.1,0.6,0.4,0.6,0.8l0.5,4.2c0,0.2,0.1,0.3,0.2,0.5l1.6,1.8c0.2,0.2,0.3,0.5,0.2,0.8l-1.2,6.5c0,0.2,0,0.5,0.1,0.7
				l2.5,3.6c0.1,0.2,0.2,0.4,0.2,0.6l-0.3,4c0,0.2,0,0.4,0.1,0.5l1.9,3.1c0.1,0.1,0.1,0.2,0.1,0.3l0.3,1.3c0.1,0.4,0.4,0.7,0.8,0.7
				l3.9,0.1c0.3,0,0.5-0.1,0.7-0.3l3.6-3.8l0.1-0.1l2.8-1.8c4-8.5,6.3-17.9,6.7-27.8l-2-2.5v-0.1l-3.3-4.7l-0.1-0.1l-3.4-6.3
				l1.3,0.4C163.6,89.2,163.8,89.3,163.9,89.5z"/>
			<polygon class="st8" points="139.1,66.4 139.7,68.9 140.8,70.3 139.5,71.6 136.8,71.9 138,69.9 137.2,68 			"/>
			<polygon class="st8" points="135.6,68.5 134,70.7 136.4,70.5 136.5,69 			"/>
			<polygon class="st8" points="79.6,92.7 82.8,92.3 86.7,94.3 84.5,94.8 82,93.4 			"/>
			<polygon class="st8" points="128.6,61.2 132.7,60.8 132.5,62 130.4,62.6 127.9,62.4 			"/>
			<path class="st7" d="M102.5,60.1l2.6-3.3c0.2-0.3,0.2-0.7-0.1-1l0,0l-3.6-2.5c-0.2-0.1-0.4-0.2-0.6-0.1l-4.1,1.3
				c-0.3,0.1-0.5,0.4-0.5,0.7v0.5c0,0.3-0.2,0.6-0.5,0.7L94,56.8c-0.3,0.1-0.7-0.1-0.8-0.3L93,56.1c-0.2-0.3-0.6-0.5-0.9-0.3
				c0,0,0,0-0.1,0l-1.7,1.1C90.2,57,90.1,57,89.9,57l-7.7,0.2c-0.1,0-0.1,0-0.2,0l-4.9-1.5h-0.2L63,55.4l-6.7-0.2
				c-0.2,0-0.3,0.1-0.5,0.2l-4.7,4.1c-0.1,0-0.1,0.1-0.2,0.1l-4,1.8c-0.4,0.2-0.5,0.6-0.4,0.9c0,0,0,0.1,0.1,0.1v0.1
				c0.2,0.3,0.2,0.8-0.2,1l0,0L44,65.1l4.6-0.6c0.1,0,0.1,0,0.2-0.1l6-2.8c0.2-0.1,0.4-0.1,0.5,0l4.4,1.5c0.3,0.1,0.5,0.4,0.5,0.7
				v5.8c0,0.1,0,0.2-0.1,0.3l-4.7,8.2c-0.1,0.2-0.1,0.4,0,0.7l4,8.4c0.2,0.4,0.6,0.5,0.9,0.4c0.3-0.1,0.4-0.4,0.4-0.7v-0.1
				c0-0.4,0.3-0.7,0.7-0.7c0.3,0,0.5,0.2,0.7,0.4l1.8,4c0,0.1,0,0.3,0,0.4l-0.3,1.4c-0.1,0.3,0.1,0.6,0.4,0.8l5.1,2.3
				c0.1,0,0.2,0.1,0.3,0.1h2c0.1,0,0.2,0,0.3,0l2.8,1.1c0.1,0,0.2,0.1,0.3,0.2l3.6,4c0.1,0.1,0.3,0.2,0.5,0.2h3.2
				c0.4,0,0.6,0.3,0.7,0.6l0.3,2.1c0,0.2,0,0.3-0.1,0.4l-2.6,4.4c-0.1,0.2-0.1,0.4,0,0.6l3.1,8c0.1,0.1,0.1,0.2,0.3,0.3l4.7,3.2
				c0.2,0.1,0.3,0.3,0.3,0.6l0.6,15c0,0.1,0.1,0.3,0.2,0.4l2.8,3.5c0.1,0.1,0.1,0.3,0.2,0.4l0.2,3.5c0,0.1,0.1,0.3,0.1,0.4l2.4,3.4
				c0.1,0.1,0.3,0.2,0.4,0.3l3.1,0.7c0.4,0.1,0.8-0.1,0.8-0.5c0.1-0.2,0-0.4-0.1-0.6l-1.4-1.8c-0.1-0.1-0.2-0.3-0.2-0.4v-2.7
				c0-0.1,0-0.3-0.1-0.4l-0.8-1.2c-0.1-0.2-0.1-0.5,0-0.8l2-3.5c0.2-0.3,0.5-0.4,0.8-0.3l0.2,0.1c0.4,0.1,0.8-0.1,0.8-0.5
				c0-0.1,0-0.1,0-0.2l-0.1-2c0-0.4,0.3-0.7,0.7-0.7h0.1l1.3,0.1c0.3,0,0.5-0.1,0.7-0.3l2.1-3.4c0.1-0.1,0.1-0.3,0.1-0.4l-0.2-2.5
				c0-0.3,0.1-0.5,0.3-0.6l5.6-3.7c0.2-0.1,0.3-0.3,0.3-0.5l0.4-5c0-0.1,0-0.2,0.1-0.3l1.5-2.7c0.1-0.1,0.1-0.2,0.1-0.3V111
				c0-0.3-0.2-0.6-0.5-0.7l-3.2-1.2c-0.1,0-0.1,0-0.2,0l-2.8-0.2c-0.1,0-0.3-0.1-0.4-0.1l-3.6-2.7c-0.1-0.1-0.2-0.2-0.3-0.3l-0.7-2
				c-0.1-0.2-0.2-0.4-0.4-0.4l-4.9-1.8c-0.1,0-0.2-0.1-0.3-0.2l-1.9-2.2C94.4,99,94.2,99,94,99h-2.9l-3.5-0.7c-0.2,0-0.4,0-0.6,0.1
				l-2,1.4c-0.1,0.1-0.3,0.1-0.5,0.1l-4.2-0.3c-0.3,0-0.5-0.2-0.6-0.5l-1-3.6c-0.1-0.3-0.3-0.4-0.5-0.5l-1.6-0.3
				c-0.4-0.1-0.6-0.4-0.5-0.8v-0.1l0.4-1c0.1-0.4,0-0.8-0.4-0.9c-0.1-0.1-0.3-0.1-0.5,0l-3.1,0.9c-0.1,0-0.3,0-0.4,0L70.2,92
				c-0.3-0.1-0.5-0.5-0.4-0.8l1.6-5.6c0.1-0.3,0.3-0.5,0.6-0.5l8.8-1c0.3,0,0.6,0.2,0.7,0.5l0.8,2.4l1-3.7c0-0.2,0.2-0.3,0.3-0.4
				l4.2-2.4c0.2-0.1,0.3-0.3,0.3-0.5l0.7-3.2c0.1-0.3,0.3-0.5,0.5-0.5l3.6-0.9c0.1,0,0.3-0.1,0.3-0.2l1.5-1.6c0.3-0.3,0.7-0.3,1,0
				c0.1,0.1,0.1,0.2,0.2,0.3l0,0c0.1,0.4,0.5,0.6,0.9,0.5c0,0,0.1,0,0.1-0.1l2.2-1.3c0.3-0.2,0.4-0.6,0.3-1l-0.1-0.1L98,70.5
				c-0.2-0.2-0.2-0.5-0.1-0.8l0.2-0.4c0.1-0.3,0.5-0.5,0.8-0.4l3.1,0.6c0.3,0.1,0.5,0.3,0.6,0.6l0.1,0.8c0,0.4,0.3,0.6,0.7,0.6h2.6
				c0.4,0,0.7-0.3,0.7-0.7c0-0.1,0-0.3-0.1-0.4l-0.9-1.3c-0.1-0.2-0.2-0.5-0.1-0.7l0.6-1.3c0.1-0.3,0.1-0.6-0.2-0.8l-2.5-2.4
				c-0.2-0.2-0.2-0.4-0.2-0.6l0.2-1.4l-2.6,1.3c-0.3,0.2-0.8,0-0.9-0.3c0-0.1-0.1-0.1-0.1-0.2l-0.2-1.1c0-0.3-0.3-0.5-0.6-0.6
				l-2.5-0.4c-0.3-0.1-0.6,0.1-0.8,0.4l-1.7,3.6c-0.1,0.2-0.2,0.3-0.4,0.3l-1,0.4c-0.1,0.1-0.2,0.1-0.3,0.3l-1,1.4
				c-0.2,0.3-0.6,0.4-1,0.2c-0.1-0.1-0.2-0.2-0.3-0.3l-0.4-1.2c-0.1-0.2-0.2-0.3-0.4-0.4l-3.5-1.5c-0.4-0.2-0.5-0.6-0.4-0.9v-0.1
				l0.7-1.2c0.1-0.2,0.2-0.3,0.4-0.3l5.5-1.8c0.3-0.1,0.6,0,0.7,0.2l0.4,0.4c0.2,0.3,0.7,0.3,1,0.1l0.1-0.1l0.4-0.5
				c0.1-0.2,0.2-0.4,0.1-0.6l-0.1-0.6c-0.1-0.3,0-0.6,0.3-0.7c1-0.7,3.6-2.4,3.9-2.3c0.7,0.3,1.4,0.7,2,1.1c0.3,0.2,0.4,0.6,0.2,1
				c-0.1,0.1-0.2,0.3-0.4,0.3l-2.8,0.9l2.6,0.5c0.2,0,0.4,0.2,0.5,0.4l0.3,0.5c0.2,0.3,0.6,0.4,1,0.2
				C102.4,60.2,102.5,60.2,102.5,60.1z"/>
			<path class="st7" d="M108.9,50.9l3.2-0.2c0.1,0,0.2,0,0.3-0.1l5.9-2.3c0.1-0.1,0.3-0.1,0.4-0.1l12.7,0.3h0.1h0.2
				c0.6,0.1,1,0.7,1,1.3c0,0.3-0.3,0.6-0.6,0.8l0,0c-0.2,0.1-0.3,0.2-0.4,0.4l-2.1,3.4c-0.1,0.3-0.4,0.5-0.6,0.6l-6.2,1.9
				c-0.2,0.1-0.5,0.2-0.6,0.4l-0.3,0.5c-0.2,0.3-0.6,0.5-1,0.5l-2.2-0.1c-0.3,0-0.7,0.1-0.9,0.4l-2,2.4c-0.3,0.4-0.8,0.5-1.3,0.3
				l-1.7-0.7c-0.5-0.2-0.8-0.8-0.6-1.4l0.7-1.9c0.1-0.2,0.2-0.4,0.4-0.5l0.5-0.4c0.4-0.3,0.5-0.8,0.4-1.2l-0.7-2.3
				c-0.1-0.4-0.4-0.6-0.8-0.7L108.9,50.9z"/>
			<polygon class="st7" points="79.4,53.2 82.3,52.3 84.2,53.5 87.8,53.3 89.7,53.8 92.6,53.3 87.8,54.7 88.5,55.8 81.6,56 
				80.8,54.5 77.5,54.4 			"/>
			<path class="st7" d="M92.8,50.5l5.9-0.7c0,0,1.1-0.8,1.5-0.8s3.1-0.2,3.4-0.2s2-0.9,2.3-0.8s6.2,0.2,5.8,0.3l-5.3,1.4
				c-0.9,0.6-1.8,1-2.8,1.5c-0.3,0-4.3-0.2-4.3-0.2l-4.7,1L92.8,50.5z"/>
			<path class="st7" d="M171,99.6l-2.2-2.7v-0.1l-3.3-4.8l-0.1-0.1l-3.4-6.3l1.3,0.4c0.2,0.1,0.4,0.2,0.5,0.4l3.1,4.7l0.1,0.1
				l2.3,2.7c0.2,0.3,0.6,0.4,0.9,0.3l0.5-0.1c-0.5-6.4-1.9-12.5-4-18.2l-0.6,0.3c-0.2,0.1-0.4,0.1-0.6,0.1l-3-0.8
				c-0.2,0-0.3,0-0.5,0l-2,0.6c-0.4,0.1-0.9-0.1-1.1-0.5l-0.5-1.1c-0.2-0.3-0.1-0.7,0.1-1l0.4-0.5c0.3-0.3,0.6-0.4,1-0.2l1.2,0.5
				c0.3,0.1,0.7,0.1,1-0.2l0.7-0.7c0.2-0.2,0.4-0.3,0.6-0.3h1.8c-2.7-6.3-6.3-12.1-10.6-17.3l-2.7,1.1c0.4-0.4,0.3-0.3,0.2-0.3
				l-5.4,4.6h-0.1l-1.5,1.1c-0.4,0.3-0.5,0.7-0.3,1.1c0.2,0.3,0.5,0.5,0.9,0.5l1.7-0.1c0.4,0,0.8,0.2,0.9,0.6l0.1,0.2
				c0.2,0.5,0.7,0.7,1.1,0.5l0.9-0.3c0.4-0.1,0.6-0.5,0.6-0.8l0.1-2.4c0-0.3,0.1-0.5,0.4-0.7l0.5-0.4c0.4-0.3,1-0.2,1.3,0.2
				c0.1,0.1,0.2,0.3,0.2,0.5c0,0.6,0.1,1.2,0.3,1.2l1.6,0.3c0.5,0.1,0.8,0.6,0.7,1.1c0,0.2-0.2,0.4-0.4,0.6l-1.6,1l-0.1,0.1
				l-3.3,1.5c-0.1,0.1-0.3,0.1-0.4,0.1l-3.3-0.3c-0.2,0-0.4,0-0.6,0.2l-2.1,1.6l-0.2,0.1l-4.8,2.2c-0.5,0.2-0.7,0.7-0.4,1.2
				c0,0,0,0.1,0.1,0.1l0.4,0.6c0.2,0.3,0.2,0.7-0.1,1.1l-0.4,0.5c-0.1,0.2-0.3,0.3-0.5,0.3l-4.4,0.9c-0.4,0.1-0.7,0.4-0.7,0.8
				l-0.1,2.2c0,0.4,0.3,0.8,0.7,0.9l2.5,0.6c0.2,0.1,0.4,0.1,0.5,0l2.1-0.8c0.2-0.1,0.3-0.2,0.4-0.3l2.1-3.2
				c0.1-0.2,0.4-0.4,0.6-0.4l4.6-0.8c0.3,0,0.6,0,0.8,0.3l2.4,2.4c0.3,0.3,0.3,0.7,0.2,1l-0.7,1.5l2.5-2.2c0.4-0.3,0.4-0.9,0.1-1.3
				l-0.1-0.1c-1.2-0.8-2.3-1.8-3.4-2.8c2,0.7,3.9,1.6,5.7,2.6c0.1,0.3,0.2,0.7,0.3,1.1c0.1,0.5,0.6,0.8,1,0.7c0.2,0,0.5-0.2,0.6-0.4
				c0.2-0.3,0.5-0.4,0.8-0.4c0.6,0,1.3,0.1,1.3,0.4c0,0.3,0.1,0.9,0.1,1.4c0,0.4,0.3,0.7,0.7,0.8l5.1,1.1c0.5,0.1,0.8,0.6,0.7,1.1
				c0,0.1-0.1,0.2-0.1,0.3l-1.7,2c-0.2,0.3-0.5,0.4-0.9,0.4l-7.2-1c-0.3,0-0.6,0.1-0.8,0.3l-0.9,0.9c-0.3,0.3-0.7,0.3-1,0.2
				l-5.2-2.3c-0.3-0.1-0.5-0.4-0.5-0.7l-0.2-1.2c-0.1-0.5-0.5-0.8-1-0.7h-0.1l-5.8,1.5h-0.1l-3.7,0.3c-0.2,0-0.4,0.1-0.6,0.3
				l-2.7,3.2l-0.1,0.1l-3.3,2.9c-0.1,0.1-0.2,0.3-0.3,0.4l-0.8,3c0,0.2,0,0.3,0,0.5l0.6,2.2c0.1,0.3,0,0.5-0.1,0.8l-0.7,1
				c-0.2,0.2-0.2,0.5-0.1,0.8l0.9,3c0,0.1,0.1,0.3,0.2,0.4l3.5,3.5c0.2,0.2,0.5,0.3,0.8,0.3l3.7-0.7h0.2h4.6c0.1,0,0.2,0,0.3,0
				l3.9,1.3c0.3,0.1,0.6,0.4,0.6,0.8l0.5,4.2c0,0.2,0.1,0.3,0.2,0.5l1.6,1.8c0.2,0.2,0.3,0.5,0.2,0.8l-1.2,6.5c0,0.2,0,0.5,0.1,0.7
				l2.5,3.6c0.1,0.2,0.2,0.4,0.2,0.6l-0.3,4c0,0.2,0,0.4,0.1,0.5l1.9,3.1c0.1,0.1,0.1,0.2,0.1,0.3l0.3,1.3c0.1,0.4,0.4,0.7,0.8,0.7
				l3.9,0.1c0.3,0,0.5-0.1,0.7-0.3l3.6-3.8l0.1-0.1l4-2.6c0.2-0.1,0.3-0.3,0.4-0.5l0.4-0.4c3-7.9,4.7-16.5,4.7-25.5
				C171,99.9,171,99.7,171,99.6z"/>
			<polygon class="st7" points="139.1,63.4 139.7,65.9 140.8,67.3 139.5,68.6 136.8,68.9 138,66.9 137.2,65 			"/>
			<polygon class="st7" points="135.6,65.5 134,67.7 136.4,67.5 136.5,66 			"/>
			<polygon class="st7" points="79.6,89.7 82.8,89.3 86.7,91.3 84.5,91.8 82,90.4 			"/>
			<polygon class="st7" points="128.6,58.2 132.7,57.8 132.5,59 130.4,59.6 127.9,59.4 			"/>
			<g class="st9">
				<path class="st10" d="M68.4,112.9c-13.9-37.1-7.6-74.2,6.9-79.7c-37.2,13.6-56.4,54.9-42.7,92.1s54.9,56.4,92.1,42.7
					c0.4-0.1,0.7-0.3,1.1-0.4C111.3,173.1,82.4,150,68.4,112.9z"/>
			</g>
			<path class="st6" d="M100,29c-8.3,0-16.6,1.4-24.4,4.3l3.2,0.9l-1.8,2l4.8-1.8l0.6,4.1l3.7-3.5l3.3,1.9l4.1-2.5l-2,4.8l5.5-1
				l-0.3,4l4.5-5.6l-1.2-3.9l4.1,4l-1.3,2l4.8-1.3l2.3-3.5l5.8,3.3l-2.3-3.8l8,2.8l0.4-1.8l-2.3-1.7l1.8-0.6
				C114.4,30.1,107.2,29,100,29z"/>
			<path class="st7" d="M121.8,32.4c-6.9-2.2-14.2-3.4-21.8-3.4c-7.4,0-14.5,1.1-21.2,3.2l-1.8,2l4.8-1.8l0.6,4.1l3.7-3.5l3.3,1.9
				l4.1-2.5l-2,4.8l5.5-1l-0.3,4l4.5-5.6l-1.2-3.9l4.1,4l-1.3,2l4.8-1.3l2.3-3.5l5.8,3.3l-2.3-3.8l8,2.8L121.8,32.4z"/>
			<circle class="st3" cx="79.5" cy="75.5" r="3.5"/>
			<circle class="st4" cx="79.5" cy="75.5" r="1.5"/>
			<circle class="st3" cx="138.4" cy="85.5" r="3.5"/>
			<circle class="st4" cx="138.4" cy="85.5" r="1.5"/>
			<circle class="st3" cx="148.9" cy="68.3" r="3.5"/>
			<circle class="st4" cx="148.9" cy="68.3" r="1.5"/>
			<circle class="st3" cx="138.9" cy="69.3" r="3.5"/>
			<circle class="st4" cx="138.9" cy="69.3" r="1.5"/>
			<circle class="st3" cx="108.9" cy="109.3" r="3.5"/>
			<circle class="st4" cx="108.9" cy="109.3" r="1.5"/>
			<circle class="st3" cx="78.9" cy="99.3" r="3.5"/>
			<circle class="st4" cx="78.9" cy="99.3" r="1.5"/>
			<circle class="st3" cx="92.9" cy="139.3" r="3.5"/>
			<circle class="st4" cx="92.9" cy="139.3" r="1.5"/>
			<circle class="st3" cx="62.9" cy="59.3" r="3.5"/>
			<circle class="st4" cx="62.9" cy="59.3" r="1.5"/>
			<circle class="st3" cx="155.9" cy="130.3" r="3.5"/>
			<circle class="st4" cx="155.9" cy="130.3" r="1.5"/>
			<circle class="st7" cx="50" cy="25" r="2"/>
			<circle class="st7" cx="43.7" cy="44.5" r="1.5"/>
			<circle class="st7" cx="29.4" cy="156.8" r="1.5"/>
			<circle class="st7" cx="115.5" cy="183.5" r="1.5"/>
			<circle class="st7" cx="56" cy="167" r="1"/>
			<circle class="st7" cx="17.7" cy="74.3" r="1"/>
			<circle class="st7" cx="97.8" cy="194.1" r="1"/>
			<circle class="st7" cx="10" cy="91.7" r="2"/>
			<circle class="st7" cx="20.5" cy="101.5" r="1.5"/>
		</g>
	</g>
</g>
</svg>
